<svg xmlns="http://www.w3.org/2000/svg" xmlns:ev="http://www.w3.org/2001/xml-events" xmlns:xlink="http://www.w3.org/1999/xlink" baseProfile="tiny" height="200px" version="1.2" width="200px" viewBox="0 0 200 200" transform="rotate(0) scale(1, 1)"><defs/><rect fill="none" height="200" width="200" x="0" y="0"/><path d="M 100.0 20.0 A 80.0 80.0 0 0 1 122.05098846535994 23.09906432493449" fill="none" opacity="1.0" stroke="#1fbf72" stroke-width="20"/><path d="M 124.7213595499958 23.915478696387723 A 80.0 80.0 0 0 1 144.73543227765975 33.67699419559666" fill="none" opacity="1.0" stroke="#1fbf72" stroke-width="20"/><path d="M 147.02282018339787 35.278640450004204 A 80.0 80.0 0 0 1 163.04086028853774 50.74708197394734" fill="none" opacity="1.0" stroke="#1fbf72" stroke-width="20"/><path d="M 164.72135954999578 52.977179816602145 A 80.0 80.0 0 0 1 175.17540966287268 72.63838853394651" fill="none" opacity="1.0" stroke="#1fbf72" stroke-width="20"/><path d="M 176.0845213036123 75.2786404500042 A 80.0 80.0 0 0 1 179.95126616152766 97.20804026379992" fill="none" opacity="1.0" stroke="#1fbf72" stroke-width="20"/><path d="M 180.0 100.0 A 80.0 80.0 0 0 1 176.9009356750655 122.05098846535994" fill="none" opacity="1.0" stroke="#1fbf72" stroke-width="20"/><path d="M 176.0845213036123 124.7213595499958 A 80.0 80.0 0 0 1 166.32300580440332 144.73543227765975" fill="none" opacity="1.0" stroke="#1fbf72" stroke-width="20"/><path d="M 164.72135954999578 147.02282018339787 A 80.0 80.0 0 0 1 149.25291802605267 163.04086028853777" fill="none" opacity="1.0" stroke="#1fbf72" stroke-width="20"/><path d="M 147.02282018339787 164.72135954999578 A 80.0 80.0 0 0 1 127.3616114660535 175.17540966287265" fill="none" opacity="1.0" stroke="#1fbf72" stroke-width="20"/><path d="M 124.7213595499958 176.0845213036123 A 80.0 80.0 0 0 1 102.79195973620008 179.95126616152766" fill="none" opacity="1.0" stroke="#1fbf72" stroke-width="20"/><path d="M 100.0 180.0 A 80.0 80.0 0 0 1 77.94901153464008 176.9009356750655" fill="none" opacity="1.0" stroke="#ff6a2d" stroke-width="20"/><path d="M 75.27864045000422 176.0845213036123 A 80.0 80.0 0 0 1 55.26456772234027 166.32300580440335" fill="none" opacity="1.0" stroke="#ff6a2d" stroke-width="20"/><path d="M 52.97717981660216 164.72135954999578 A 80.0 80.0 0 0 1 36.95913971146225 149.25291802605267" fill="none" opacity="1.0" stroke="#ff6a2d" stroke-width="20"/><path d="M 35.27864045000422 147.02282018339787 A 80.0 80.0 0 0 1 24.824590337127333 127.36161146605352" fill="none" opacity="1.0" stroke="#ff6a2d" stroke-width="20"/><path d="M 23.915478696387723 124.7213595499958 A 80.0 80.0 0 0 1 20.048733838472344 102.79195973620008" fill="none" opacity="1.0" stroke="#ff6a2d" stroke-width="20"/><path d="M 20.0 100.00000000000001 A 80.0 80.0 0 0 1 23.09906432493449 77.94901153464008" fill="none" opacity="1.0" stroke="#b01a5d" stroke-width="20"/><path d="M 23.91547869638771 75.27864045000422 A 80.0 80.0 0 0 1 33.67699419559665 55.26456772234027" fill="none" opacity="1.0" stroke="#b01a5d" stroke-width="20"/><path d="M 35.27864045000419 52.97717981660216 A 80.0 80.0 0 0 1 50.74708197394735 36.95913971146223" fill="none" opacity="1.0" stroke="#b01a5d" stroke-width="20"/><path d="M 52.97717981660214 35.27864045000422 A 80.0 80.0 0 0 1 72.63838853394651 24.82459033712732" fill="none" opacity="1.0" stroke="#b01a5d" stroke-width="20"/><path d="M 75.27864045000419 23.915478696387723 A 80.0 80.0 0 0 1 97.20804026379994 20.048733838472344" fill="none" opacity="1.0" stroke="#b01a5d" stroke-width="20"/></svg>